HIERARCHY
ROOT hip
{
  OFFSET 0 0 0
  CHANNELS 6 Xposition Yposition Zposition Zrotation Yrotation Xrotation
  JOINT abdomen
  {
    OFFSET 0 20.6881 -0.73152
    CHANNELS 3 Zrotation Xrotation Yrotation
    JOINT chest
    {
      OFFSET 0 11.7043 -0.48768
      CHANNELS 3 Zrotation Xrotation Yrotation
      JOINT neck
      {
        OFFSET 0 22.1894 -2.19456
        CHANNELS 3 Zrotation Xrotation Yrotation
        JOINT head
        {
          OFFSET -0.24384 7.07133 1.2192
          CHANNELS 3 Zrotation Xrotation Yrotation
          JOINT leftEye
          {
            OFFSET 4.14528 8.04674 8.04672
            CHANNELS 3 Zrotation Xrotation Yrotation
            End Site
            {
              OFFSET 1 0 0
            }
          }
          JOINT rightEye
          {
            OFFSET -3.6576 8.04674 8.04672
            CHANNELS 3 Zrotation Xrotation Yrotation
            End Site
            {
              OFFSET 1 0 0
            }
          }
        }
      }
      JOINT rCollar
      {
        OFFSET -2.68224 19.2634 -4.8768
        CHANNELS 3 Zrotation Xrotation Yrotation
        JOINT rShldr
        {
          OFFSET -8.77824 -1.95073 1.46304
          CHANNELS 3 Zrotation Xrotation Yrotation
          JOINT rForeArm
          {
            OFFSET -28.1742 -1.7115 0.48768
            CHANNELS 3 Zrotation Xrotation Yrotation
            JOINT rHand
            {
              OFFSET -22.5879 0.773209 7.07136
              CHANNELS 3 Zrotation Xrotation Yrotation
              JOINT rThumb1
              {
                OFFSET -1.2192 -0.487915 3.41376
                CHANNELS 3 Zrotation Xrotation Yrotation
                JOINT rThumb2
                {
                  OFFSET -3.37035 -0.52449 3.41376
                  CHANNELS 3 Zrotation Xrotation Yrotation
                  End Site
                  {
                    OFFSET -1.78271 -1.18214 1.43049
                  }
                }
              }
              JOINT rIndex1
              {
                OFFSET -7.75947 0.938293 5.60832
                CHANNELS 3 Zrotation Xrotation Yrotation
                JOINT rIndex2
                {
                  OFFSET -2.54057 -0.884171 1.56538
                  CHANNELS 3 Zrotation Xrotation Yrotation
                  End Site
                  {
                    OFFSET -1.62519 -0.234802 1.16502
                  }
                }
              }
              JOINT rMid1
              {
                OFFSET -8.24714 1.18213 3.41376
                CHANNELS 3 Zrotation Xrotation Yrotation
                JOINT rMid2
                {
                  OFFSET -3.10165 -0.590103 1.0647
                  CHANNELS 3 Zrotation Xrotation Yrotation
                  End Site
                  {
                    OFFSET -2.48547 -0.328903 0.83742
                  }
                }
              }
              JOINT rRing1
              {
                OFFSET -8.82822 0.546677 1.51678
                CHANNELS 3 Zrotation Xrotation Yrotation
                JOINT rRing2
                {
                  OFFSET -2.60934 -0.819778 -0.0198488
                  CHANNELS 3 Zrotation Xrotation Yrotation
                  End Site
                  {
                    OFFSET -2.33842 -0.294052 0.168128
                  }
                }
              }
              JOINT rPinky1
              {
                OFFSET -8.27202 -0.0477905 -0.4584
                CHANNELS 3 Zrotation Xrotation Yrotation
                JOINT rPinky2
                {
                  OFFSET -1.82734 -0.647385 -0.700984
                  CHANNELS 3 Zrotation Xrotation Yrotation
                  End Site
                  {
                    OFFSET -1.69225 -0.51767 -0.607171
                  }
                }
              }
            }
          }
        }
      }
      JOINT lCollar
      {
        OFFSET 2.68224 19.2634 -4.8768
        CHANNELS 3 Zrotation Xrotation Yrotation
        JOINT lShldr
        {
          OFFSET 8.77824 -1.95073 1.46304
          CHANNELS 3 Zrotation Xrotation Yrotation
          JOINT lForeArm
          {
            OFFSET 28.1742 -1.7115 0.48768
            CHANNELS 3 Zrotation Xrotation Yrotation
            JOINT lHand
            {
              OFFSET 22.5879 0.773209 7.07136
              CHANNELS 3 Zrotation Xrotation Yrotation
              JOINT lThumb1
              {
                OFFSET 1.2192 -0.487915 3.41376
                CHANNELS 3 Zrotation Xrotation Yrotation
                JOINT lThumb2
                {
                  OFFSET 3.37035 -0.52449 3.41376
                  CHANNELS 3 Zrotation Xrotation Yrotation
                  End Site
                  {
                    OFFSET 1.78271 -1.18214 1.43049
                  }
                }
              }
              JOINT lIndex1
              {
                OFFSET 7.75947 0.938293 5.60832
                CHANNELS 3 Zrotation Xrotation Yrotation
                JOINT lIndex2
                {
                  OFFSET 2.54057 -0.884171 1.56538
                  CHANNELS 3 Zrotation Xrotation Yrotation
                  End Site
                  {
                    OFFSET 1.62519 -0.234802 1.16502
                  }
                }
              }
              JOINT lMid1
              {
                OFFSET 8.24714 1.18213 3.41376
                CHANNELS 3 Zrotation Xrotation Yrotation
                JOINT lMid2
                {
                  OFFSET 3.10165 -0.590103 1.0647
                  CHANNELS 3 Zrotation Xrotation Yrotation
                  End Site
                  {
                    OFFSET 2.48547 -0.328903 0.83742
                  }
                }
              }
              JOINT lRing1
              {
                OFFSET 8.82822 0.546677 1.51678
                CHANNELS 3 Zrotation Xrotation Yrotation
                JOINT lRing2
                {
                  OFFSET 2.60934 -0.819778 -0.0198488
                  CHANNELS 3 Zrotation Xrotation Yrotation
                  End Site
                  {
                    OFFSET 2.33842 -0.294052 0.168128
                  }
                }
              }
              JOINT lPinky1
              {
                OFFSET 8.27202 -0.0477905 -0.4584
                CHANNELS 3 Zrotation Xrotation Yrotation
                JOINT lPinky2
                {
                  OFFSET 1.82734 -0.647385 -0.700984
                  CHANNELS 3 Zrotation Xrotation Yrotation
                  End Site
                  {
                    OFFSET 1.69225 -0.51767 -0.607171
                  }
                }
              }
            }
          }
        }
      }
    }
  }
  JOINT rButtock
  {
    OFFSET -8.77824 4.35084 1.2192
    CHANNELS 3 Zrotation Xrotation Yrotation
    JOINT rThigh
    {
      OFFSET 0 -1.70687 -2.19456
      CHANNELS 3 Zrotation Xrotation Yrotation
      JOINT rShin
      {
        OFFSET 0 -36.8199 0.73152
        CHANNELS 3 Zrotation Xrotation Yrotation
        JOINT rFoot
        {
          OFFSET 0.73152 -45.1104 -5.12064
          CHANNELS 3 Zrotation Xrotation Yrotation
          End Site
          {
            OFFSET -1.1221 -3.69964 12.103
          }
        }
      }
    }
  }
  JOINT lButtock
  {
    OFFSET 8.77824 4.35084 1.2192
    CHANNELS 3 Zrotation Xrotation Yrotation
    JOINT lThigh
    {
      OFFSET 0 -1.70687 -2.19456
      CHANNELS 3 Zrotation Xrotation Yrotation
      JOINT lShin
      {
        OFFSET 0 -36.8199 0.73152
        CHANNELS 3 Zrotation Xrotation Yrotation
        JOINT lFoot
        {
          OFFSET -0.73152 -45.1104 -5.12064
          CHANNELS 3 Zrotation Xrotation Yrotation
          End Site
          {
            OFFSET 1.1221 -3.69964 12.103
          }
        }
      }
    }
  }
}
MOTION
Frames:	7
Frame Time:	0.03333
3.354 60.1494 -9.089 -7.944041 -4.152522 5.602815 -4.181532 6.501081 0.30086 3.243674 -7.844616 24.169976 8.45412 27.808676 125.896264 -32.627165 29.641331 -139.701253 -0.003467 -0.0 0.004679 0.001291 -0.0 -0.00188 -83.770371 68.26693 86.903023 71.492018 -50.29377 79.481636 -175.488994 25.06445 37.300502 157.340792 -35.311711 139.479169 -172.744746 -10.424148 89.929498 31.630476 -65.935926 25.62179 -77.666783 43.030212 64.538782 -67.428392 51.977735 46.871806 -20.134808 39.008124 15.357554 -42.019136 58.53609 36.19766 -145.119871 0.268142 -179.211659 8.440905 73.756655 3.127378 -169.675928 81.468632 -146.921143 -148.459439 11.660397 -142.406555 -3.542816 -62.053098 13.037995 -100.47607 46.359386 78.883483 146.247837 8.480529 -28.609221 -171.297559 -38.935555 -142.317598 -74.671164 -48.869856 -27.705389 32.814783 -83.15684 72.596111 4.708424 7.223632 -2.854255 -10.019695 1.056044 0.378215 160.673381 -6.668177 -143.243818 175.369864 -39.008482 -142.895896 145.120214 0.31035 179.225213 152.393536 -25.064221 175.331913 -40.01191 85.639939 0.921749 -2.280603 2.447767 0.311706 -0.000899 3e-06 -0.0 -12.933864 -20.735866 -32.968485 -135.118995 76.481987 -120.558025 -99.593768 -47.090843 179.899404 179.990505 75.748541 0.006496 -171.33846 14.245428 129.037188 75.865035 -24.740562 -176.861811 52.233699 -47.516142 135.856387
2.0140000000000002 65.2848 0.4364 -10.312291 8.863396 -3.107416 -5.910574 12.083809 -0.0 4.797649 -7.105505 17.788894 9.05164 29.420138 123.435746 -33.85745 27.147806 -142.606183 0.000587 0.0 0.002716 0.000587 0.0 0.002716 -33.833876 -85.666058 -55.250649 7.675648 -0.920352 -25.701973 134.553307 -70.544123 -1.447668 164.599085 -21.041902 144.379549 -3.642729 3.554503 0.670181 -13.605954 13.50473 13.784222 -166.822585 -43.974161 122.059251 -86.126807 55.955613 70.181904 12.027506 -37.299504 -3.219313 3.044509 0.17256 0.04226 -0.013565 -1.323234 -0.415367 6.174491 34.106866 5.680968 44.71699 86.378846 -5.351305 -127.812466 -30.449364 -124.739369 155.459877 -3.227674 -161.777948 113.730843 74.164168 -73.988905 8.460535 70.713038 -114.318618 7.952544 1.800231 2.256298 175.198917 -12.845863 -89.8071 53.728411 -9.015589 -9.943142 151.353989 -17.158868 -121.131491 62.155808 57.355925 -46.049426 160.673608 -6.667581 -143.245889 3.345553 17.312029 -3.697734 0.057971 -3.429565 1.081229 156.295777 -34.938828 -175.990225 11.664468 -23.130322 11.070969 172.864195 78.322503 143.852248 0.006412 0.000484 0.003206 -33.265386 -46.349519 -144.728414 -118.46465 -15.084186 -167.901763 19.141015 59.409404 -122.433103 0.004964 -0.000852 0.002482 8.282268 -43.24548 -180.0 25.488401 -75.576309 -19.249622 -0.230757 63.698376 -111.739702
-1.4004 72.60990000000001 10.5945 -22.837657 28.540168 -20.950856 -1.737476 21.570722 -167.340849 -7.878255 5.812352 170.09362 9.955005 24.432576 85.292592 -38.250705 2.556642 -115.074441 0.003359 -0.0 -0.000443 -0.002283 -0.0 0.00045 2.460307 -18.216318 -3.669118 10.152911 -53.582749 -33.563941 -165.100647 -70.751945 72.078291 152.74276 -41.302943 136.257514 71.830899 -48.263452 25.792404 -150.011041 -79.740733 162.278408 -152.105027 -18.556424 121.368257 -175.778305 -41.613952 115.873928 -0.969249 2.779507 0.55433 -6.299199 24.20086 5.329045 -73.165104 -72.142199 -90.198242 -71.853999 83.314541 89.642089 -86.001452 -50.498573 -84.370874 -145.459868 8.724804 -141.928369 159.222477 -48.725085 -170.566697 -130.796491 47.302561 128.686962 179.850532 7.899545 -48.417678 174.707717 0.642965 -142.344626 169.561842 -7.243286 -89.928907 77.659001 4.694838 -26.342174 173.760037 -52.873249 -119.826722 85.599845 55.488969 -70.387133 -5.894355 -18.351817 2.542724 -2.605925 1.640078 -0.209446 0.014511 -1.323395 0.414296 -11.146475 -12.233227 1.538639 150.577365 31.033732 146.364295 24.444658 -39.098311 25.479485 0.001298 0.000204 -0.0 -77.379813 -51.138017 5.647001 132.552389 32.09264 -171.432132 -29.871658 -67.371278 59.268122 -179.947735 75.75062 -0.043003 -158.632923 49.459185 -16.280524 3.223105 54.342002 -34.8005 62.818661 21.365481 8.264199
-5.3635 81.4302 23.491300000000003 -49.566039 37.296291 -45.204251 11.185285 35.421022 -0.0 10.035264 -13.430132 -10.54611 10.098953 22.531505 74.062519 -34.585936 -10.430005 -109.741925 -7.9e-05 0.0 -0.000225 -7.9e-05 0.0 -0.000225 -155.547891 -3.804257 161.900123 -76.97411 49.056935 53.202851 -144.522357 69.804961 -143.66882 -6.108328 37.978493 3.589758 -172.745845 -10.423679 89.929582 169.338526 -26.296875 98.314526 -174.888852 -54.095648 119.332424 -172.070763 -40.069753 115.170033 23.902207 -61.334125 1.397838 6.508673 -10.528175 -0.986381 -145.119226 0.268175 -179.211597 -155.54545 1.234187 -179.380114 -152.504683 38.523366 -147.797129 -4.394877 -13.798809 -7.00597 158.514876 -30.702029 -167.038778 176.127135 2.785446 138.79075 119.969067 23.183064 -21.13626 -175.477859 -44.077521 -145.549168 0.44164 0.435246 -0.069655 66.905031 27.880487 -61.170794 77.667751 43.028782 -64.538452 1.421564 11.764239 2.006255 -4.18041 -12.845531 1.969498 -3.462635 -0.839219 0.128434 0.01968 -1.725836 0.543895 -6.282598 33.727683 -5.591994 113.835652 -39.284591 111.848405 -4.093082 2.173146 0.77154 -179.999053 75.749664 -0.000977 140.017621 -18.56087 -15.819774 -132.970513 35.636064 -41.11521 75.88747 -8.43043 175.307883 -179.999053 75.749664 -0.000977 -127.908193 38.050732 -117.388481 -53.209757 3.12147 -38.027224 90.276923 -29.588431 179.854158
-2.2319 88.7125 31.274400000000004 -68.559127 35.570162 -59.386819 22.827847 35.640822 54.608576 -8.645549 -18.393462 -74.608879 10.895219 26.844031 101.075643 -40.476728 1.053805 -134.972844 1.1e-05 -0.0 -5.7e-05 -0.005584 -0.0 0.000984 -155.614132 -4.23627 161.991416 -60.339376 32.71572 40.258837 -176.338088 45.491361 -127.678976 -9.736655 46.365318 4.730237 -103.199577 36.331593 60.111621 97.553868 -50.649073 46.183416 -14.227324 19.203841 9.559597 15.850817 -9.591168 -1.597267 -160.807657 -7.083034 143.307535 -178.815601 -46.304317 141.527569 -145.121065 1.975212 -179.749293 11.656554 26.407688 -5.985081 -124.851502 -29.039127 -122.622243 -170.147953 71.14778 -143.717437 155.504131 -3.514577 -161.838373 72.264779 -34.172697 67.190412 165.861629 -41.972508 96.275662 6.766399 -12.373903 4.049341 177.747914 -15.324048 -89.569881 176.420453 -12.739148 -96.141297 0.044907 0.071452 -0.024386 177.832258 -34.348732 -106.356832 0.058134 0.167874 -0.031229 165.984662 -13.186144 -144.036704 145.120509 0.185092 179.187353 -11.797005 26.290253 6.002869 -12.986893 44.344529 -10.762156 -14.130161 41.897129 -8.044918 0.00041 0.000624 -0.000528 -74.106035 -38.850837 -0.0 12.809714 31.974807 -88.796347 -26.777008 -22.95828 38.277132 -0.003809 0.000624 -0.003809 46.59877 -5.453523 6.931046 -10.531535 10.901422 -87.526836 68.306046 -25.561339 171.179771
-2.4983999999999997 89.0803 36.653999999999996 -71.205695 34.757085 -60.017408 16.442112 32.995497 109.986823 -17.907778 -5.29494 -120.952213 -2.739605 35.227566 -175.231808 -26.923077 47.999087 155.873192 0.000423 0.0 0.005076 -0.000634 -0.0 0.000533 -21.654096 52.079155 23.828535 116.497596 -62.4082 55.416959 -82.538854 39.565315 106.532207 10.009366 -13.722217 6.6313 88.928416 -50.830798 37.599761 -15.647818 -43.214541 -30.245319 2.32563 -3.867896 -1.259221 -1.254845 17.458803 4.038479 -125.645432 49.840585 115.274587 3.607599 -0.585962 0.170704 -0.000398 -0.01829 -0.006955 -156.528525 -27.666829 175.087984 -138.056113 -7.11286 -135.294915 -20.989982 -36.896388 -22.908895 -0.163538 -0.989902 0.219546 -42.156636 0.818169 -67.182665 -2.420528 -3.67909 -78.281081 9.576464 -14.841078 4.782699 169.320778 -7.000376 -89.922054 -91.098808 -65.793353 -68.558244 -12.216262 -21.784756 5.120918 161.575483 -17.47655 -110.686383 -6.532548 -20.41497 2.719412 -3.02191 0.395306 -0.041503 145.120638 0.26833 179.211321 155.438227 68.358643 -170.99608 -5.662682 16.872177 -5.088409 -14.303571 41.849449 -8.410841 -0.0 -0.001698 -0.000228 -83.531863 -42.851369 -81.746292 -25.86612 29.06727 -132.718062 -94.724767 46.098426 -179.255014 0.008112 -0.000687 0.008111 51.132032 -1.812753 3.658319 0.280901 9.926337 147.861651 -8.798993 52.254239 -85.943618
-3.0587 87.7188 43.5841 -90.644385 34.300713 -82.194577 20.528519 42.487926 -0.0 3.506713 -18.396356 -14.181937 -15.013137 23.386315 -59.547381 46.005221 10.484482 16.131547 -0.001818 -0.0 0.002844 0.003452 0.0 0.00164 0.117778 -0.71417 -0.157032 -100.237351 -35.118328 -157.33544 116.555351 47.849726 -82.919156 -94.051053 79.935027 79.18912 -103.198791 36.331299 60.112081 -58.665987 -4.338572 45.664561 -129.576181 16.761635 108.786667 -162.478114 -10.576091 118.049345 -155.058814 9.325752 140.042542 -163.58386 -5.844611 143.082938 -0.006451 -0.831222 -0.260822 -134.435919 -83.262915 -156.694648 0.097277 0.258756 0.090142 -24.244772 -41.354089 -24.925087 13.742605 42.431832 -15.5683 -74.223968 -29.9207 -106.418701 112.239951 -9.146284 -83.591067 -165.721513 -59.168729 -140.473595 164.887943 -2.559951 -89.605906 158.328981 -2.264007 -80.514309 10.963613 15.485866 -7.14734 172.737359 -26.332138 -108.818187 -78.53765 -80.918878 -49.688267 163.20015 -3.916664 -143.06247 145.119446 0.226579 179.199611 6.952064 -61.109992 27.908631 148.071704 21.784058 144.328281 127.476405 -28.840212 124.751695 179.991994 75.750356 0.005478 121.970552 -27.741205 106.200208 110.19365 0.43849 -157.815265 111.764203 47.213419 -19.241353 -0.000363 -0.000714 0.000467 57.162632 -12.708338 180.0 -5.306794 -11.07215 -94.929402 -126.267802 1.201359 42.609649
